<svg width="28" height="28" viewBox="0 0 28 28" fill="none" xmlns="http://www.w3.org/2000/svg">
<circle cx="14" cy="14" r="14" fill="#454545"/>
<g clip-path="url(#clip0_30_2)">
<path d="M6.01492 17.762C5.94707 18.3913 6.11215 19.0237 6.47831 19.5372C6.84448 20.0508 7.38583 20.4092 7.99798 20.5433C8.61014 20.6775 9.24977 20.5779 9.79357 20.2638C10.3374 19.9496 10.7468 19.4432 10.943 18.842L12.0118 15.608C12.0506 15.4878 12.1261 15.3829 12.2274 15.3086C12.3287 15.2342 12.4507 15.1941 12.5759 15.194H15.1052C15.2201 15.1948 15.3323 15.2292 15.4282 15.2931C15.5241 15.357 15.5996 15.4477 15.6455 15.554L17.1952 19.088C17.3956 19.5412 17.7213 19.9262 18.1332 20.1966C18.5451 20.467 19.0256 20.6113 19.5168 20.612H19.6534C20.0093 20.6133 20.3615 20.5386 20.6869 20.3929C21.0124 20.2472 21.3037 20.0337 21.5419 19.7664C21.7801 19.4991 21.9597 19.184 22.0691 18.8417C22.1786 18.4994 22.2152 18.1376 22.1768 17.78L21.4405 10.688C21.3639 9.94764 21.0177 9.26246 20.469 8.76568C19.9203 8.2689 19.2085 7.99601 18.4718 8.00004H9.70211C8.96543 7.99601 8.25358 8.2689 7.70492 8.76568C7.15625 9.26246 6.80996 9.94764 6.73336 10.688L6.01492 17.762ZM15.8771 11.594H17.0646V10.394H18.2521V11.594H19.4396V12.794H18.2521V13.994H17.0646V12.794H15.8771V11.594ZM8.75211 11.288H9.64273V10.394H10.8302V11.288H11.7209V12.488H10.8302V13.388H9.64273V12.488H8.75211V11.288Z" fill="white"/>
<path d="M18.6562 10.906H17.4688V12.106H18.6562V10.906Z" fill="white"/>
</g>
<defs>
<clipPath id="clip0_30_2">
<rect width="19" height="24" fill="white" transform="translate(5 4)"/>
</clipPath>
</defs>
</svg>
